<?xml version="1.0" encoding="UTF-8"?>
<!DOCTYPE svg PUBLIC "-//W3C//DTD SVG 1.1//EN" "http://www.w3.org/Graphics/SVG/1.1/DTD/svg11.dtd">
<!-- Creator: CorelDRAW 2017 -->
<svg xmlns="http://www.w3.org/2000/svg" xml:space="preserve" width="18.79in" height="21.287in" version="1.1" style="shape-rendering:geometricPrecision; text-rendering:geometricPrecision; image-rendering:optimizeQuality; fill-rule:evenodd; clip-rule:evenodd"
viewBox="0 0 8443.18 9565.19"
 xmlns:xlink="http://www.w3.org/1999/xlink">
 <defs>
  <style type="text/css">
   <![CDATA[
    .fil0 {fill:none}
    .fil3 {fill:#57A7B9}
    .fil4 {fill:#0F1B1D;fill-rule:nonzero}
    .fil2 {fill:#73CDDD;fill-rule:nonzero}
    .fil1 {fill:white;fill-rule:nonzero}
   ]]>
  </style>
 </defs>
 <g id="__x0023_Layer_x0020_1">
  <metadata id="CorelCorpID_0Corel-Layer"/>
  <g id="_1332530423792">
   <rect class="fil0" x="-0" y="0" width="8443.18" height="9565.19"/>
   <g>
    <path class="fil1" d="M4221.11 22.46c-408.82,0 -805.55,80.13 -1179.18,238.16 -360.74,152.59 -684.67,370.96 -962.77,649.07 -278.1,278.11 -496.48,602.03 -649.07,962.78 -158.03,373.63 -238.16,770.37 -238.16,1179.18 0,408.81 80.13,805.55 238.16,1179.18 152.58,360.75 370.96,684.67 649.07,962.77 278.11,278.11 602.03,496.48 962.77,649.07 373.64,158.03 770.37,238.16 1179.18,238.16 408.81,0 805.55,-80.13 1179.18,-238.16 360.75,-152.58 684.67,-370.96 962.77,-649.07 278.11,-278.1 496.48,-602.03 649.06,-962.77 158.03,-373.63 238.16,-770.37 238.16,-1179.18 0,-408.81 -80.13,-805.55 -238.16,-1179.18 -152.58,-360.75 -370.96,-684.67 -649.06,-962.78 -278.1,-278.11 -602.03,-496.48 -962.77,-649.07 -373.63,-158.03 -770.37,-238.16 -1179.18,-238.16z"/>
    <path class="fil2" d="M4221.11 154.2c-1600.22,0 -2897.45,1297.24 -2897.45,2897.45 0,1600.21 1297.23,2897.45 2897.45,2897.45 1600.22,0 2897.45,-1297.24 2897.45,-2897.45 0,-1600.22 -1297.23,-2897.45 -2897.45,-2897.45z"/>
    <path class="fil3" d="M3762.96 3532.51l119.92 44.39c20.86,-1607.07 -744.49,-1002.04 -1179.53,-1388.99l7.02 272.65 81.36 18.02c75.76,20.03 159.09,33.61 245.46,47.61 39.89,6.48 86.81,17.27 125.87,21.38 167.43,30.95 322.79,75.19 398.84,183.21 112.74,160.12 175.36,558.17 201.06,801.73zm919.83 0l-119.92 44.39c-20.86,-1607.07 744.49,-1002.04 1179.53,-1388.99l-7.02 272.65 -81.36 18.02c-75.76,20.03 -159.09,33.61 -245.46,47.61 -39.89,6.48 -86.81,17.27 -125.87,21.38 -167.43,30.95 -322.79,75.19 -398.84,183.21 -112.74,160.12 -175.36,558.17 -201.06,801.73zm-980.61 431.36c37.08,470.64 352.04,714.59 520.67,714.59 168.35,0 482.76,-245.53 520.73,-714.59l-46.27 -372.92 -474.43 -30.42 -474.43 30.42 -46.27 372.92z"/>
    <path class="fil4" d="M3940.48 4201.96c-26.92,-26.95 -70.63,-26.95 -97.55,0 -26.95,26.93 -26.95,70.62 0,97.55 6.45,6.47 160.69,158.19 379.91,158.19 219.22,0 373.46,-151.72 379.91,-158.19 26.95,-26.94 26.95,-70.62 0,-97.55 -26.92,-26.95 -70.63,-26.95 -97.55,0 -1.19,1.17 -119.65,117.76 -282.36,117.76 -160.91,0 -281.34,-116.77 -282.36,-117.76z"/>
    <path class="fil4" d="M3520.86 2645.93c-74.39,-15.5 -143.74,-12.17 -203.9,8.41 -62.75,21.49 -115.14,61.24 -152.7,117.56 -17.35,25.87 -10.4,60.93 15.45,78.25 25.87,17.35 60.93,10.4 78.28,-15.45 23.45,-35.14 56.13,-59.99 95.22,-73.37 41.37,-14.18 90.55,-16.13 144.65,-4.85 30.51,6.32 60.44,-13.26 66.78,-43.78 6.32,-30.51 -13.27,-60.44 -43.77,-66.78z"/>
    <path class="fil4" d="M3450.19 2898.59c-60.96,0 -110.38,49.42 -110.38,110.38 0,60.96 49.42,110.38 110.38,110.38 60.96,0 110.38,-49.42 110.38,-110.38 0,-60.96 -49.42,-110.38 -110.38,-110.38z"/>
    <path class="fil4" d="M6058.06 1684.42c0,-370.63 -341.65,-548.94 -522.29,-591.46 -25.09,-5.92 -51.28,2.67 -68.1,22.15 -16.77,19.5 -21.32,46.73 -11.76,70.63 1,2.49 101.3,258.4 52.32,454.34 -40.99,163.93 -343.95,168.51 -347,168.51 -23.07,0 -44.61,11.53 -57.4,30.72 -6.83,10.26 -66.78,104.63 -66.78,259.03 0,85.72 23.13,171.47 43.87,231.12 -157.43,39.34 -306.25,100.18 -391.02,227.32 -164.62,246.92 -199.82,869.69 -204.21,962.69l-269.16 0 -31.95 0 -224.44 0c-4.39,-93 -39.58,-715.77 -204.2,-962.69 -84.77,-127.14 -233.59,-187.97 -391.02,-227.32 20.74,-59.65 43.87,-145.4 43.87,-231.12 0,-154.4 -59.94,-248.77 -66.78,-259.03 -12.79,-19.19 -34.33,-30.72 -57.4,-30.72 -3.04,0 -306.01,-4.58 -347,-168.51 -48.98,-195.94 51.32,-451.85 52.32,-454.34 9.55,-23.9 5.01,-51.14 -11.76,-70.63 -16.82,-19.48 -43.01,-28.07 -68.1,-22.15 -180.65,42.51 -522.29,220.83 -522.29,591.46 0,228.56 88.49,418.72 252,549.83 -11.25,55.32 -12.05,145.56 42.21,272.16 96.01,224.05 317.3,226.62 326.68,226.62 30.48,0 55.19,-24.71 55.19,-55.19 0,-30.48 -24.71,-55.19 -55.19,-55.19 -1.56,0 -157.55,-1.83 -225.22,-159.72 -29.16,-68.04 -38.22,-120.69 -39.15,-158.67 11.63,6.47 23.29,12.92 35.46,18.93l4.89 2.43c98.86,49.44 224.17,73.07 356.82,98.08 36.72,6.93 73.65,13.89 110.06,21.45 3.48,1.01 6.98,1.74 10.48,2.2 160.29,33.87 308.64,80.22 379.13,185.98 123.46,185.2 171.51,688 180.92,886.83 -26.84,1.94 -80.39,10.41 -117.11,47.14 -50.94,50.93 -104.77,192.61 -44.26,374.13 2.49,7.48 6.6,13.97 11.31,19.97 29.12,1.41 99.95,12.1 109.33,-0.39 1.97,-2.64 48.91,-64.01 107.12,-34.88 87.43,43.72 134.39,134.08 134.73,134.73 17.03,34.08 58.45,47.89 92.55,30.84 34.07,-17.03 47.89,-58.48 30.84,-92.55 -2.67,-5.35 -66.95,-131.68 -196.41,-196.41 -66.55,-33.28 -128.37,-26.22 -178.07,-4.12 -3.96,-76.36 20.95,-123.65 29.86,-133.23 5,-3.8 22.37,-7.71 34.57,-7.91l348.07 0 31.95 0 392.8 0c12.21,0.2 29.58,4.11 34.57,7.91 8.91,9.58 33.82,56.87 29.86,133.23 -49.71,-22.1 -111.52,-29.16 -178.07,4.12 -129.46,64.73 -193.75,191.06 -196.41,196.41 -17.05,34.08 -3.23,75.52 30.84,92.55 34.1,17.05 75.52,3.23 92.55,-30.84 0.34,-0.65 47.29,-91 134.73,-134.73 58.21,-29.13 105.15,32.24 107.12,34.88 9.38,12.49 80.21,1.8 109.32,0.39 4.71,-6 8.82,-12.49 11.31,-19.97 60.51,-181.52 6.68,-323.2 -44.26,-374.13 -36.72,-36.73 -90.28,-45.2 -117.11,-47.14 9.41,-198.83 57.46,-701.63 180.92,-886.83 70.5,-105.76 218.85,-152.11 379.13,-185.98 3.5,-0.46 7.01,-1.19 10.48,-2.2 36.41,-7.56 73.34,-14.53 110.06,-21.45 132.65,-25.01 257.96,-48.64 356.82,-98.08l4.89 -2.43c12.16,-6 23.82,-12.45 35.46,-18.93 -0.93,37.98 -9.99,90.62 -39.15,158.67 -67.67,157.89 -223.65,159.72 -225.22,159.72 -30.48,0 -55.19,24.71 -55.19,55.19 0,30.48 24.71,55.19 55.19,55.19 9.38,0 230.66,-2.57 326.68,-226.62 54.26,-126.6 53.46,-216.84 42.21,-272.16 163.51,-131.11 252,-321.27 252,-549.83z"/>
    <path class="fil4" d="M5187.86 2834.71c17.35,25.84 52.41,32.8 78.28,15.45 25.85,-17.32 32.8,-52.38 15.45,-78.25 -37.57,-56.33 -89.95,-96.07 -152.7,-117.56 -60.16,-20.58 -129.51,-23.91 -203.9,-8.41 -30.51,6.34 -50.09,36.27 -43.78,66.78 6.34,30.51 36.27,50.09 66.78,43.78 54.09,-11.28 103.28,-9.32 144.65,4.85 39.09,13.38 71.78,38.23 95.22,73.37z"/>
    <path class="fil4" d="M4995.66 2898.59c-60.96,0 -110.38,49.42 -110.38,110.38 0,60.96 49.42,110.38 110.38,110.38 60.96,0 110.38,-49.42 110.38,-110.38 0,-60.96 -49.42,-110.38 -110.38,-110.38z"/>
    <path class="fil4" d="M3248.09 1542.62c28.27,-10.27 42.93,-41.78 33.2,-70.24 -2.05,-5.97 -47.43,-148.13 175.5,-324.13 102.2,-80.68 284.14,-124.8 379.73,-143.4l0 210.46c0,22.29 13.43,42.35 34.01,50.92 20.56,8.53 44.32,3.87 60.13,-11.83 1.81,-1.79 183.65,-179.73 435.66,-204.93 163.21,-16.32 307.53,-2.38 393.77,10.62l-195.06 260.07c-14.58,19.44 -14.73,46.12 -0.38,65.73 14.38,19.59 39.83,27.49 62.78,19.48 2.51,-0.89 253.18,-87.84 392.43,-79.78 117.49,6.91 170.51,36.35 189.62,55.85l-70.17 140.32c-13.62,27.27 -2.57,60.42 24.68,74.05 7.92,3.96 16.34,5.83 24.64,5.83 20.24,0 39.73,-11.18 49.41,-30.52l82.79 -165.57c5.01,-10.04 6.86,-21.38 5.27,-32.49 -3.37,-23.58 -33.66,-142.02 -299.76,-157.67 -80.25,-4.76 -185.86,15.58 -272.97,37.61l148.32 -197.75c11.09,-14.79 14.04,-34.16 7.86,-51.58 -6.18,-17.43 -20.68,-30.6 -38.63,-35.09 -9.39,-2.36 -233.3,-57.14 -515.58,-28.97 -176.78,17.68 -320.56,97.51 -408.43,159.68l0 -159.95c0,-15.93 -6.88,-31.07 -18.86,-41.55 -11.99,-10.48 -27.96,-15.29 -43.71,-13.14 -13.39,1.81 -329.8,45.8 -495.93,176.94 -290.72,229.52 -213.88,440.59 -210.48,449.45 10.81,28.09 41.96,41.84 70.17,31.55z"/>
    <path class="fil4" d="M5459.08 2854.44c-24.37,18.3 -29.32,52.89 -11.04,77.27 1.54,2.03 152.54,207 127.17,486.18 -12.96,142.58 -42.05,245.32 -65.86,309.35l-82.62 -115.67c-13.39,-18.73 -37.03,-27.15 -59.23,-21.22 -22.24,5.98 -38.44,25.14 -40.62,48.08 -0.52,5.65 -55.92,568.01 -238.62,829.02 -129.5,185 -273.12,333.33 -349.75,407.54l-78.9 -177.55c-8.99,-20.22 -28.71,-33.24 -51.37,-32.7 -22.15,0.36 -41.95,13.99 -50.26,34.52 -0.51,1.28 -53.56,130.09 -180.98,257.53 -77.26,77.26 -127.17,118.21 -154.12,138.28 -27.18,-20.21 -77.04,-61.16 -154.17,-138.28 -127.43,-127.44 -180.47,-256.25 -180.95,-257.42 -8.25,-20.6 -28.01,-34.26 -50.2,-34.68 -0.35,-0.01 -0.7,-0.01 -1.04,-0.01 -21.78,0 -41.57,12.81 -50.44,32.77l-78.9 177.55c-76.63,-74.2 -220.25,-222.54 -349.75,-407.54 -182.49,-260.7 -238.09,-823.37 -238.64,-829.03 -2.18,-22.92 -18.38,-42.08 -40.61,-48.05 -22.31,-6 -45.85,2.48 -59.23,21.21l-82.61 115.66c-23.83,-64.06 -52.91,-166.78 -65.87,-309.34 -25.22,-277.4 125.71,-484.23 127.17,-486.18 18.29,-24.39 13.34,-58.98 -11.04,-77.27 -24.36,-18.26 -58.96,-13.34 -77.27,11.04 -7.27,9.72 -177.96,241.43 -148.78,562.42 26.38,290.23 115,432.6 118.76,438.51 9.84,15.5 26.73,25.07 45.08,25.57 18.19,0.4 35.73,-8.17 46.4,-23.08l56.29 -78.81c29.44,193.61 98.97,539.31 239.91,740.65 194.77,278.23 413.59,470.93 422.8,479 13.21,11.55 31.13,16.11 48.21,12.36 17.13,-3.77 31.43,-15.45 38.56,-31.48l64.35 -144.79c33.02,53.42 81.92,121.18 149.74,188.99 140.25,140.26 201.03,172.68 207.5,175.92 7.78,3.88 16.22,5.82 24.68,5.82 8.46,0 16.91,-1.94 24.69,-5.82 6.47,-3.23 67.25,-35.65 207.5,-175.92 67.82,-67.8 116.71,-135.56 149.74,-188.99l64.35 144.79c7.13,16.02 21.44,27.7 38.56,31.48 17.1,3.76 35.02,-0.81 48.21,-12.36 9.22,-8.07 228.04,-200.78 422.8,-479 140.94,-201.34 210.46,-547.04 239.91,-740.65l56.29 78.81c10.66,14.92 27.91,23.5 46.4,23.08 18.35,-0.5 35.25,-10.08 45.08,-25.57 3.76,-5.92 92.38,-148.28 118.76,-438.51 29.18,-320.99 -141.5,-552.7 -148.78,-562.42 -18.29,-24.37 -52.87,-29.29 -77.27,-11.04z"/>
    <g>
     <path class="fil4" d="M1621.79 8580.86c127.23,-71.25 234.11,-183.22 234.11,-384.24l0 -5.09c0,-122.14 -40.72,-221.38 -122.14,-302.81 -101.78,-101.79 -262.1,-157.77 -465.67,-157.77l-631.06 0c-109.42,0 -195.94,86.52 -195.94,195.94l0 524.79 -256.18 0c-89.44,0 -162.4,72.96 -162.4,162.4 0,89.43 72.97,162.39 162.4,162.39l256.18 0 0 539.77c0,109.42 86.52,195.94 195.94,195.94l651.42 0c402.05,0 666.69,-162.86 666.69,-488.57l0 -5.09c0,-239.19 -127.23,-358.79 -333.35,-437.67zm-799.01 -506.38l0 0 386.78 0c165.4,0 257.01,66.16 257.01,183.21l0 5.09c0,132.32 -109.42,188.3 -282.46,188.3l-361.33 0 0 -376.6zm743.03 900.8l0 0c0,132.32 -104.33,193.39 -277.36,193.39l-465.67 0 0 -391.87 452.95 0c201.02,0 290.08,73.8 290.08,193.39l0 5.09z"/>
     <path class="fil4" d="M2479.62 7715.68c-109.41,0 -195.93,86.52 -195.93,195.94l0 1419.9c0,109.42 86.52,195.94 195.93,195.94 109.42,0 195.94,-86.52 195.94,-195.94l0 -1419.9c0,-109.42 -86.52,-195.94 -195.94,-195.94z"/>
     <path class="fil4" d="M3843.55 8445.99c-307.9,-78.89 -384.24,-117.06 -384.24,-234.1l0 -5.09c0,-86.51 78.88,-155.22 229.02,-155.22 122.14,0 244.28,43.26 374.06,119.6 30.54,17.81 61.07,27.99 99.24,27.99 101.78,0 183.21,-78.88 183.21,-180.67 0,-76.34 -43.26,-129.77 -86.52,-155.23 -160.31,-101.78 -348.61,-157.76 -564.9,-157.76 -363.88,0 -623.43,213.75 -623.43,536.92l0 5.09c0,353.7 231.56,452.94 590.36,544.55 297.72,76.34 358.79,127.24 358.79,226.47l0 5.09c0,104.33 -96.7,167.95 -257,167.95 -173.03,0 -320.62,-61.08 -455.48,-160.32 -25.45,-17.81 -61.07,-35.62 -111.96,-35.62 -101.79,0 -183.22,78.88 -183.22,180.67 0,61.07 30.54,117.05 73.8,147.59 198.48,142.5 435.13,213.75 669.24,213.75 384.23,0 653.96,-198.48 653.96,-552.18l0 -5.09c0,-310.44 -203.57,-440.22 -564.9,-534.37z"/>
     <path class="fil4" d="M5594.89 7700.42c-549.64,0 -949.14,414.78 -949.14,921.16l0 5.08c0,506.38 394.42,916.07 944.06,916.07 549.64,0 949.14,-414.78 949.14,-921.15l0 -5.09c0,-506.38 -394.42,-916.07 -944.06,-916.07zm534.37 926.24l0 0c0,305.36 -218.84,554.73 -534.37,554.73 -315.54,0 -539.46,-254.46 -539.46,-559.81l0 -5.09c0,-305.35 218.84,-554.73 534.37,-554.73 315.53,0 539.46,254.46 539.46,559.82l0 5.08z"/>
     <path class="fil4" d="M8227.28 7715.68c-106.87,0 -193.39,86.52 -193.39,193.39l0 918.6 -755.75 -992.4c-53.44,-68.71 -109.42,-114.51 -203.57,-114.51l-40.71 0c-109.42,0 -195.94,86.52 -195.94,195.94l0 1417.35c0,106.87 86.52,193.39 193.39,193.39 106.87,0 193.39,-86.52 193.39,-193.39l0 -954.24 783.74 1028.03c53.44,68.71 109.42,114.5 203.57,114.5l12.72 0c109.42,0 195.94,-86.51 195.94,-195.93l0 -1417.36c0,-106.87 -86.52,-193.39 -193.39,-193.39z"/>
    </g>
    <path class="fil1" d="M2840.85 2199.48l5.51 2.73c81.64,40.81 197.74,62.71 320.68,85.9 20.41,3.84 41.07,7.73 61.86,11.79 18.13,-48.82 41.92,-127.02 41.92,-201.56 0,-70.56 -16.57,-123.49 -29.28,-153.7 -107.91,-8.15 -382.65,-50.58 -437.77,-271.08 -34.64,-138.55 -11.44,-293.02 15.24,-401.04 -122.81,58.38 -293.25,181.01 -293.25,411.9 0,163.99 54.67,386.46 315.09,515.06z"/>
    <path class="fil1" d="M5278.8 2288.11c122.94,-23.19 239.04,-45.08 320.68,-85.9l5.51 -2.73c260.43,-128.6 315.09,-351.07 315.09,-515.06 0,-230.89 -170.44,-353.52 -293.25,-411.9 26.68,108.02 49.88,262.49 15.24,401.04 -55.12,220.5 -329.86,262.93 -437.77,271.08 -12.71,30.21 -29.28,83.14 -29.28,153.7 0,74.54 23.78,152.74 41.92,201.56 20.79,-4.05 41.45,-7.95 61.86,-11.79z"/>
   </g>
  </g>
 </g>
</svg>
