<svg width="200" height="61" viewBox="0 0 200 61" fill="none" xmlns="http://www.w3.org/2000/svg">
<g clip-path="url(#clip0_3058_188)">
<path d="M64.1489 9.29691C61.8628 9.2953 59.6317 10.0083 57.7592 11.3388V0H52.9417V31.9745H57.7277V29.939C59.166 30.9557 60.8198 31.6149 62.5556 31.8633C64.2913 32.1117 66.0603 31.9423 67.7197 31.3689C69.379 30.7955 70.8821 29.8341 72.1076 28.5624C73.333 27.2907 74.2465 25.7444 74.7741 24.0483C75.3017 22.3523 75.4286 20.5541 75.1447 18.7991C74.8608 17.0441 74.1739 15.3814 73.1396 13.9455C72.1054 12.5095 70.7527 11.3406 69.1908 10.533C67.629 9.72552 65.9019 9.30207 64.1489 9.29691ZM64.1489 27.1186C62.8853 27.125 61.6483 26.7507 60.5946 26.0431C59.5409 25.3356 58.7178 24.3267 58.2296 23.1442C57.7415 21.9617 57.6102 20.6588 57.8524 19.4006C58.0947 18.1423 58.6995 16.9853 59.5904 16.0761C60.4812 15.1669 61.618 14.5464 62.8567 14.2932C64.0954 14.04 65.3803 14.1654 66.5486 14.6537C67.717 15.142 68.7163 15.971 69.4198 17.036C70.1234 18.1009 70.4997 19.3537 70.5009 20.6357C70.501 22.3485 69.8329 23.9917 68.6428 25.2063C67.4526 26.421 65.837 27.1085 64.1489 27.1186Z" fill="#0F151B"/>
<path d="M79.5573 9.29695H84.3495V31.9745H79.5573V9.29695ZM79.5573 2.01001H84.3495V6.87222H79.5573V2.01001Z" fill="#0F151B"/>
<path d="M102.663 27.1186H98.9529C97.6258 27.1186 96.8334 26.0275 96.8334 24.6875V14.1591H103.487L101.802 9.30325H96.8523V2.77563L92.0348 4.46656V9.27773H88.079V14.1336H92.0474V26.2572C92.0466 27.0015 92.1905 27.7387 92.4708 28.4265C92.7512 29.1144 93.1625 29.7393 93.6813 30.2657C94.2001 30.792 94.816 31.2093 95.494 31.4938C96.1719 31.7782 96.8985 31.9242 97.6321 31.9234H102.663V27.1186Z" fill="#0F151B"/>
<path d="M122.726 9.30334L116.298 25.9893L109.871 9.30334H105.085L113.833 31.9745H118.814L127.543 9.30334H122.726Z" fill="#0F151B"/>
<path d="M139.769 27.1186C138.507 27.1173 137.274 26.7366 136.225 26.0245C135.176 25.3123 134.359 24.3007 133.877 23.1176C133.394 21.9344 133.268 20.6327 133.515 19.377C133.762 18.1212 134.369 16.9678 135.262 16.0624C136.154 15.157 137.291 14.5403 138.529 14.2902C139.766 14.0401 141.049 14.1678 142.215 14.6573C143.382 15.1467 144.379 15.9758 145.081 17.0399C145.782 18.104 146.158 19.3553 146.159 20.6357C146.16 21.4872 145.995 22.3306 145.674 23.1176C145.353 23.9045 144.883 24.6195 144.289 25.2217C143.696 25.8238 142.991 26.3013 142.215 26.6268C141.44 26.9523 140.609 27.1194 139.769 27.1186ZM146.159 11.3387C144.55 10.1996 142.673 9.51031 140.719 9.34024C138.764 9.17018 136.799 9.52531 135.022 10.3699C133.245 11.2145 131.719 12.5189 130.597 14.1518C129.474 15.7847 128.796 17.6886 128.629 19.6722C128.462 21.6557 128.812 23.6488 129.645 25.4513C130.478 27.2537 131.764 28.8019 133.374 29.9401C134.984 31.0784 136.86 31.7665 138.815 31.9355C140.77 32.1044 142.735 31.7481 144.511 30.9025C145.086 30.6287 145.637 30.3064 146.159 29.9389V31.9744H150.939V9.29688H146.159V11.3387Z" fill="#0F151B"/>
<path d="M176.567 9.29688H171.781L165.353 25.9828L158.932 9.29688H154.14L162.888 31.9744H167.856L176.567 9.29688Z" fill="#0F151B"/>
<path d="M188.824 27.1186C187.562 27.1186 186.328 26.7389 185.278 26.0276C184.229 25.3162 183.411 24.3051 182.927 23.122C182.444 21.9389 182.317 20.637 182.563 19.3809C182.809 18.1247 183.416 16.9707 184.308 16.0647C185.2 15.1587 186.337 14.5413 187.575 14.2907C188.813 14.0401 190.096 14.1674 191.263 14.6566C192.429 15.1459 193.427 15.975 194.129 17.0392C194.831 18.1034 195.206 19.355 195.208 20.6357C195.209 21.4867 195.044 22.3296 194.724 23.1161C194.403 23.9026 193.933 24.6173 193.34 25.2194C192.747 25.8215 192.043 26.2991 191.269 26.625C190.494 26.9509 189.663 27.1186 188.824 27.1186ZM188.824 9.29688C186.614 9.29561 184.452 9.95955 182.614 11.2047C180.775 12.4499 179.342 14.2203 178.495 16.2921C177.648 18.3639 177.426 20.6439 177.856 22.8438C178.287 25.0438 179.351 27.0647 180.913 28.6511C182.476 30.2375 184.467 31.3181 186.635 31.7561C188.803 32.1941 191.051 31.97 193.093 31.1119C195.136 30.2539 196.882 28.8006 198.11 26.9358C199.338 25.071 199.994 22.8785 199.994 20.6357C199.994 17.6284 198.816 14.7444 196.72 12.6179C194.625 10.4915 191.782 9.29688 188.818 9.29688H188.824Z" fill="#0F151B"/>
<path fill-rule="evenodd" clip-rule="evenodd" d="M17.5718 2.0929H29.4834L11.9116 32H0L17.5718 2.0929Z" fill="#0F151B"/>
<path fill-rule="evenodd" clip-rule="evenodd" d="M28.5022 16.9475H40.4138L31.6091 32H19.7164L28.5022 16.9475Z" fill="#0F151B"/>
</g>
<path d="M134.17 45.6387V56.9003H132.29V51.9543H126.879V56.9003H125V45.6387H126.879V50.1281H132.29V45.6387H134.17Z" fill="black"/>
<path d="M143.038 49.0624L138.679 59.6392H136.8L138.228 56.4433L135.146 48.9863H137.026L139.13 54.3128L141.235 48.9863H143.038V49.0624Z" fill="black"/>
<path d="M152.058 53.0152C152.058 55.2979 150.404 57.1241 148.375 57.1241C147.097 57.1241 146.195 56.5154 145.594 55.5262V59.6352H143.865V49.0584H145.594V50.5042C146.12 49.515 147.097 48.9062 148.375 48.9062C150.479 48.9062 152.058 50.7324 152.058 53.0152ZM150.404 53.0152C150.404 51.6455 149.352 50.6564 148.074 50.6564C146.721 50.6564 145.669 51.7216 145.669 53.0152C145.669 54.3849 146.721 55.374 148.074 55.374C149.352 55.374 150.404 54.3088 150.404 53.0152Z" fill="black"/>
<path d="M160.248 52.4108V56.9003H158.444V52.6391C158.444 51.4217 157.693 50.5846 156.566 50.5846C155.438 50.5846 154.611 51.4217 154.611 52.6391V56.9003H152.883V45.6387H154.611V50.2803C155.137 49.3672 155.964 48.9106 156.941 48.9106C158.971 48.9106 160.248 50.2803 160.248 52.4108Z" fill="black"/>
<path d="M168.74 53.3956H162.803C163.028 54.6892 163.855 55.4501 165.133 55.4501C166.035 55.4501 166.786 55.0697 167.162 54.4609L168.59 55.374C167.989 56.4393 166.711 57.0481 165.133 57.0481C162.878 57.0481 161.074 55.2979 161.074 52.9391C161.074 50.6564 162.803 48.9062 165.058 48.9062C167.162 48.9062 168.816 50.5803 168.816 52.6348C168.816 52.863 168.74 53.1674 168.74 53.3956ZM166.937 52.026C166.861 51.0368 166.035 50.352 164.982 50.352C163.93 50.352 163.179 50.9607 162.878 52.026H166.937Z" fill="black"/>
<path d="M32.2607 57V45.3636H36.1925C37.1054 45.3636 37.8516 45.5284 38.4311 45.858C39.0144 46.1837 39.4463 46.625 39.7266 47.1818C40.0069 47.7386 40.147 48.3598 40.147 49.0455C40.147 49.7311 40.0069 50.3542 39.7266 50.9148C39.45 51.4754 39.022 51.9223 38.4425 52.2557C37.8629 52.5852 37.1205 52.75 36.2152 52.75H33.397V51.5H36.1697C36.7947 51.5 37.2966 51.392 37.6754 51.1761C38.0542 50.9602 38.3288 50.6686 38.4993 50.3011C38.6735 49.9299 38.7607 49.5114 38.7607 49.0455C38.7607 48.5795 38.6735 48.1629 38.4993 47.7955C38.3288 47.428 38.0523 47.1402 37.6697 46.9318C37.2872 46.7197 36.7796 46.6136 36.147 46.6136H33.6697V57H32.2607ZM45.6868 57.1818C44.8989 57.1818 44.2076 56.9943 43.6129 56.6193C43.022 56.2443 42.5599 55.7197 42.2266 55.0455C41.897 54.3712 41.7322 53.5833 41.7322 52.6818C41.7322 51.7727 41.897 50.9792 42.2266 50.3011C42.5599 49.6231 43.022 49.0966 43.6129 48.7216C44.2076 48.3466 44.8989 48.1591 45.6868 48.1591C46.4747 48.1591 47.1641 48.3466 47.755 48.7216C48.3497 49.0966 48.8118 49.6231 49.1413 50.3011C49.4747 50.9792 49.6413 51.7727 49.6413 52.6818C49.6413 53.5833 49.4747 54.3712 49.1413 55.0455C48.8118 55.7197 48.3497 56.2443 47.755 56.6193C47.1641 56.9943 46.4747 57.1818 45.6868 57.1818ZM45.6868 55.9773C46.2853 55.9773 46.7777 55.8239 47.1641 55.517C47.5504 55.2102 47.8364 54.8068 48.022 54.3068C48.2076 53.8068 48.3004 53.2652 48.3004 52.6818C48.3004 52.0985 48.2076 51.5549 48.022 51.0511C47.8364 50.5473 47.5504 50.1402 47.1641 49.8295C46.7777 49.5189 46.2853 49.3636 45.6868 49.3636C45.0883 49.3636 44.5959 49.5189 44.2095 49.8295C43.8232 50.1402 43.5372 50.5473 43.3516 51.0511C43.166 51.5549 43.0732 52.0985 43.0732 52.6818C43.0732 53.2652 43.166 53.8068 43.3516 54.3068C43.5372 54.8068 43.8232 55.2102 44.2095 55.517C44.5959 55.8239 45.0883 55.9773 45.6868 55.9773ZM53.3686 57L50.7095 48.2727H52.1186L54.005 54.9545H54.0959L55.9595 48.2727H57.3913L59.2322 54.9318H59.3232L61.2095 48.2727H62.6186L59.9595 57H58.6413L56.7322 50.2955H56.5959L54.6868 57H53.3686ZM67.7536 57.1818C66.9126 57.1818 66.1873 56.9962 65.5774 56.625C64.9714 56.25 64.5036 55.7273 64.174 55.0568C63.8482 54.3826 63.6854 53.5985 63.6854 52.7045C63.6854 51.8106 63.8482 51.0227 64.174 50.3409C64.5036 49.6553 64.9619 49.1212 65.549 48.7386C66.1399 48.3523 66.8293 48.1591 67.6172 48.1591C68.0717 48.1591 68.5206 48.2348 68.9638 48.3864C69.407 48.5379 69.8104 48.7841 70.174 49.125C70.5376 49.4621 70.8274 49.9091 71.0433 50.4659C71.2592 51.0227 71.3672 51.7083 71.3672 52.5227V53.0909H64.6399V51.9318H70.0036C70.0036 51.4394 69.9051 51 69.7081 50.6136C69.5149 50.2273 69.2384 49.9223 68.8786 49.6989C68.5225 49.4754 68.102 49.3636 67.6172 49.3636C67.0831 49.3636 66.621 49.4962 66.2308 49.7614C65.8445 50.0227 65.5471 50.3636 65.3388 50.7841C65.1304 51.2045 65.0263 51.6553 65.0263 52.1364V52.9091C65.0263 53.5682 65.1399 54.1269 65.3672 54.5852C65.5982 55.0398 65.9183 55.3864 66.3274 55.625C66.7365 55.8598 67.2119 55.9773 67.7536 55.9773C68.1058 55.9773 68.424 55.928 68.7081 55.8295C68.996 55.7273 69.2441 55.5758 69.4524 55.375C69.6607 55.1705 69.8217 54.9167 69.9354 54.6136L71.2308 54.9773C71.0945 55.4167 70.8653 55.803 70.5433 56.1364C70.2214 56.4659 69.8236 56.7235 69.3501 56.9091C68.8767 57.0909 68.3445 57.1818 67.7536 57.1818ZM73.407 57V48.2727H74.7024V49.5909H74.7933C74.9524 49.1591 75.2403 48.8087 75.657 48.5398C76.0736 48.2708 76.5433 48.1364 77.0661 48.1364C77.1645 48.1364 77.2876 48.1383 77.4354 48.142C77.5831 48.1458 77.6948 48.1515 77.7706 48.1591V49.5227C77.7251 49.5114 77.621 49.4943 77.4581 49.4716C77.299 49.4451 77.1304 49.4318 76.9524 49.4318C76.5282 49.4318 76.1494 49.5208 75.8161 49.6989C75.4865 49.8731 75.2251 50.1155 75.032 50.4261C74.8426 50.733 74.7479 51.0833 74.7479 51.4773V57H73.407ZM82.7536 57.1818C81.9126 57.1818 81.1873 56.9962 80.5774 56.625C79.9714 56.25 79.5036 55.7273 79.174 55.0568C78.8482 54.3826 78.6854 53.5985 78.6854 52.7045C78.6854 51.8106 78.8482 51.0227 79.174 50.3409C79.5036 49.6553 79.9619 49.1212 80.549 48.7386C81.1399 48.3523 81.8293 48.1591 82.6172 48.1591C83.0717 48.1591 83.5206 48.2348 83.9638 48.3864C84.407 48.5379 84.8104 48.7841 85.174 49.125C85.5376 49.4621 85.8274 49.9091 86.0433 50.4659C86.2592 51.0227 86.3672 51.7083 86.3672 52.5227V53.0909H79.6399V51.9318H85.0036C85.0036 51.4394 84.9051 51 84.7081 50.6136C84.5149 50.2273 84.2384 49.9223 83.8786 49.6989C83.5225 49.4754 83.102 49.3636 82.6172 49.3636C82.0831 49.3636 81.621 49.4962 81.2308 49.7614C80.8445 50.0227 80.5471 50.3636 80.3388 50.7841C80.1304 51.2045 80.0263 51.6553 80.0263 52.1364V52.9091C80.0263 53.5682 80.1399 54.1269 80.3672 54.5852C80.5982 55.0398 80.9183 55.3864 81.3274 55.625C81.7365 55.8598 82.2119 55.9773 82.7536 55.9773C83.1058 55.9773 83.424 55.928 83.7081 55.8295C83.996 55.7273 84.2441 55.5758 84.4524 55.375C84.6607 55.1705 84.8217 54.9167 84.9354 54.6136L86.2308 54.9773C86.0945 55.4167 85.8653 55.803 85.5433 56.1364C85.2214 56.4659 84.8236 56.7235 84.3501 56.9091C83.8767 57.0909 83.3445 57.1818 82.7536 57.1818ZM91.7024 57.1818C90.9751 57.1818 90.3331 56.9981 89.7763 56.6307C89.2195 56.2595 88.7839 55.7367 88.4695 55.0625C88.1551 54.3845 87.9979 53.5833 87.9979 52.6591C87.9979 51.7424 88.1551 50.947 88.4695 50.2727C88.7839 49.5985 89.2214 49.0777 89.782 48.7102C90.3426 48.3428 90.9903 48.1591 91.7251 48.1591C92.2933 48.1591 92.7422 48.2538 93.0717 48.4432C93.4051 48.6288 93.6589 48.8409 93.8331 49.0795C94.0111 49.3144 94.1494 49.5076 94.2479 49.6591H94.3615V45.3636H95.7024V57H94.407V55.6591H94.2479C94.1494 55.8182 94.0092 56.0189 93.8274 56.2614C93.6456 56.5 93.3861 56.714 93.049 56.9034C92.7119 57.089 92.263 57.1818 91.7024 57.1818ZM91.8842 55.9773C92.4221 55.9773 92.8767 55.8371 93.2479 55.5568C93.6191 55.2727 93.9013 54.8807 94.0945 54.3807C94.2876 53.8769 94.3842 53.2955 94.3842 52.6364C94.3842 51.9848 94.2895 51.4148 94.1001 50.9261C93.9107 50.4337 93.6304 50.0511 93.2592 49.7784C92.888 49.5019 92.4297 49.3636 91.8842 49.3636C91.3161 49.3636 90.8426 49.5095 90.4638 49.8011C90.0888 50.089 89.8066 50.4811 89.6172 50.9773C89.4316 51.4697 89.3388 52.0227 89.3388 52.6364C89.3388 53.2576 89.4335 53.822 89.6229 54.3295C89.8161 54.8333 90.1001 55.2348 90.4751 55.5341C90.8539 55.8295 91.3236 55.9773 91.8842 55.9773ZM103.026 57V45.3636H104.367V49.6591H104.481C104.579 49.5076 104.716 49.3144 104.89 49.0795C105.068 48.8409 105.322 48.6288 105.651 48.4432C105.985 48.2538 106.435 48.1591 107.004 48.1591C107.738 48.1591 108.386 48.3428 108.947 48.7102C109.507 49.0777 109.945 49.5985 110.259 50.2727C110.574 50.947 110.731 51.7424 110.731 52.6591C110.731 53.5833 110.574 54.3845 110.259 55.0625C109.945 55.7367 109.509 56.2595 108.952 56.6307C108.396 56.9981 107.754 57.1818 107.026 57.1818C106.466 57.1818 106.017 57.089 105.68 56.9034C105.343 56.714 105.083 56.5 104.901 56.2614C104.719 56.0189 104.579 55.8182 104.481 55.6591H104.322V57H103.026ZM104.344 52.6364C104.344 53.2955 104.441 53.8769 104.634 54.3807C104.827 54.8807 105.11 55.2727 105.481 55.5568C105.852 55.8371 106.307 55.9773 106.844 55.9773C107.405 55.9773 107.873 55.8295 108.248 55.5341C108.627 55.2348 108.911 54.8333 109.1 54.3295C109.293 53.822 109.39 53.2576 109.39 52.6364C109.39 52.0227 109.295 51.4697 109.106 50.9773C108.92 50.4811 108.638 50.089 108.259 49.8011C107.884 49.5095 107.413 49.3636 106.844 49.3636C106.299 49.3636 105.841 49.5019 105.469 49.7784C105.098 50.0511 104.818 50.4337 104.629 50.9261C104.439 51.4148 104.344 51.9848 104.344 52.6364ZM113.333 60.2727C113.106 60.2727 112.903 60.2538 112.725 60.2159C112.547 60.1818 112.424 60.1477 112.356 60.1136L112.697 58.9318C113.022 59.0152 113.31 59.0455 113.56 59.0227C113.81 59 114.032 58.8883 114.225 58.6875C114.422 58.4905 114.602 58.1705 114.765 57.7273L115.015 57.0455L111.788 48.2727H113.242L115.651 55.2273H115.742L118.151 48.2727H119.606L115.901 58.2727C115.735 58.7235 115.528 59.0966 115.282 59.392C115.036 59.6913 114.75 59.9129 114.424 60.0568C114.102 60.2008 113.738 60.2727 113.333 60.2727Z" fill="#78787A"/>
<defs>
<clipPath id="clip0_3058_188">
<rect width="200" height="32" fill="white"/>
</clipPath>
</defs>
</svg>
