<svg width="200" height="60" viewBox="0 0 200 60" fill="none" xmlns="http://www.w3.org/2000/svg">
<g clip-path="url(#clip0_3058_188)">
<path d="M64.1489 9.29691C61.8628 9.2953 59.6317 10.0083 57.7592 11.3388V0H52.9417V31.9745H57.7277V29.939C59.166 30.9557 60.8198 31.6149 62.5556 31.8633C64.2913 32.1117 66.0603 31.9423 67.7197 31.3689C69.379 30.7955 70.8821 29.8341 72.1076 28.5624C73.333 27.2907 74.2465 25.7444 74.7741 24.0483C75.3017 22.3523 75.4286 20.5541 75.1447 18.7991C74.8608 17.0441 74.1739 15.3814 73.1396 13.9455C72.1054 12.5095 70.7527 11.3406 69.1908 10.533C67.629 9.72552 65.9019 9.30207 64.1489 9.29691ZM64.1489 27.1186C62.8853 27.125 61.6483 26.7507 60.5946 26.0431C59.5409 25.3356 58.7178 24.3267 58.2296 23.1442C57.7415 21.9617 57.6102 20.6588 57.8524 19.4006C58.0947 18.1423 58.6995 16.9853 59.5904 16.0761C60.4812 15.1669 61.618 14.5464 62.8567 14.2932C64.0954 14.04 65.3803 14.1654 66.5486 14.6537C67.717 15.142 68.7163 15.971 69.4198 17.036C70.1234 18.1009 70.4997 19.3537 70.5009 20.6357C70.501 22.3485 69.8329 23.9917 68.6428 25.2063C67.4526 26.421 65.837 27.1085 64.1489 27.1186Z" fill="#0F151B"/>
<path d="M79.5573 9.29695H84.3495V31.9745H79.5573V9.29695ZM79.5573 2.01001H84.3495V6.87222H79.5573V2.01001Z" fill="#0F151B"/>
<path d="M102.663 27.1186H98.9529C97.6258 27.1186 96.8334 26.0275 96.8334 24.6875V14.1591H103.487L101.802 9.30325H96.8523V2.77563L92.0348 4.46656V9.27773H88.079V14.1336H92.0474V26.2572C92.0466 27.0015 92.1905 27.7387 92.4708 28.4265C92.7512 29.1144 93.1625 29.7393 93.6813 30.2657C94.2001 30.792 94.816 31.2093 95.494 31.4938C96.1719 31.7782 96.8985 31.9242 97.6321 31.9234H102.663V27.1186Z" fill="#0F151B"/>
<path d="M122.726 9.30334L116.298 25.9893L109.871 9.30334H105.085L113.833 31.9745H118.814L127.543 9.30334H122.726Z" fill="#0F151B"/>
<path d="M139.769 27.1186C138.507 27.1173 137.274 26.7366 136.225 26.0245C135.176 25.3123 134.359 24.3007 133.877 23.1176C133.394 21.9344 133.268 20.6327 133.515 19.377C133.762 18.1212 134.369 16.9678 135.262 16.0624C136.154 15.157 137.291 14.5403 138.529 14.2902C139.766 14.0401 141.049 14.1678 142.215 14.6573C143.382 15.1467 144.379 15.9758 145.081 17.0399C145.782 18.104 146.158 19.3553 146.159 20.6357C146.16 21.4872 145.995 22.3306 145.674 23.1176C145.353 23.9045 144.883 24.6195 144.289 25.2217C143.696 25.8238 142.991 26.3013 142.215 26.6268C141.44 26.9523 140.609 27.1194 139.769 27.1186ZM146.159 11.3387C144.55 10.1996 142.673 9.51031 140.719 9.34024C138.764 9.17018 136.799 9.52531 135.022 10.3699C133.245 11.2145 131.719 12.5189 130.597 14.1518C129.474 15.7847 128.796 17.6886 128.629 19.6722C128.462 21.6557 128.812 23.6488 129.645 25.4513C130.478 27.2537 131.764 28.8019 133.374 29.9401C134.984 31.0784 136.86 31.7665 138.815 31.9355C140.77 32.1044 142.735 31.7481 144.511 30.9025C145.086 30.6287 145.637 30.3064 146.159 29.9389V31.9744H150.939V9.29688H146.159V11.3387Z" fill="#0F151B"/>
<path d="M176.567 9.29688H171.781L165.353 25.9828L158.932 9.29688H154.14L162.888 31.9744H167.856L176.567 9.29688Z" fill="#0F151B"/>
<path d="M188.824 27.1186C187.562 27.1186 186.328 26.7389 185.278 26.0276C184.229 25.3162 183.411 24.3051 182.927 23.122C182.444 21.9389 182.317 20.637 182.563 19.3809C182.809 18.1247 183.416 16.9707 184.308 16.0647C185.2 15.1587 186.337 14.5413 187.575 14.2907C188.813 14.0401 190.096 14.1674 191.263 14.6566C192.429 15.1459 193.427 15.975 194.129 17.0392C194.831 18.1034 195.206 19.355 195.208 20.6357C195.209 21.4867 195.044 22.3296 194.724 23.1161C194.403 23.9026 193.933 24.6173 193.34 25.2194C192.747 25.8215 192.043 26.2991 191.269 26.625C190.494 26.9509 189.663 27.1186 188.824 27.1186ZM188.824 9.29688C186.614 9.29561 184.452 9.95955 182.614 11.2047C180.775 12.4499 179.342 14.2203 178.495 16.2921C177.648 18.3639 177.426 20.6439 177.856 22.8438C178.287 25.0438 179.351 27.0647 180.913 28.6511C182.476 30.2375 184.467 31.3181 186.635 31.7561C188.803 32.1941 191.051 31.97 193.093 31.1119C195.136 30.2539 196.882 28.8006 198.11 26.9358C199.338 25.071 199.994 22.8785 199.994 20.6357C199.994 17.6284 198.816 14.7444 196.72 12.6179C194.625 10.4915 191.782 9.29688 188.818 9.29688H188.824Z" fill="#0F151B"/>
<path fill-rule="evenodd" clip-rule="evenodd" d="M27.5718 2.0929H39.4834L21.9116 32H10L27.5718 2.0929Z" fill="#0F151B"/>
<path fill-rule="evenodd" clip-rule="evenodd" d="M38.5022 16.9475H50.4138L41.6091 32H29.7164L38.5022 16.9475Z" fill="#0F151B"/>
</g>
<defs>
<clipPath id="clip0_3058_188">
<rect width="200" height="60" fill="white"/>
</clipPath>
</defs>
</svg>
