<?xml version="1.0" encoding="UTF-8"?>
<svg xmlns="http://www.w3.org/2000/svg" class="bt-h-8 bt-w-auto" width="297" height="60" viewBox="0 0 478.4 96.7">
  <path fill="currentColor" d="M448.8 20.7c-15 0-27.2 12.2-27.2 27.2s12.2 27.2 27.2 27.2S476 62.9 476 47.9s-12.2-27.2-27.2-27.2zm0 50.7c-13 0-23.5-10.5-23.5-23.5s10.5-23.5 23.5-23.5 23.5 10.5 23.5 23.5-10.5 23.5-23.5 23.5zM113.5 74.3V21.5h23.1c6.4 0 11.1 1.3 14.2 3.8 3 2.5 4.6 6.1 4.6 10.6 0 2.8-.9 5.3-2.6 7.5-1.7 2.2-4.2 3.6-7.5 4.2v.1c3.7.5 6.5 1.9 8.5 4.2 2 2.2 3 4.9 3 8 0 4.5-1.6 8.1-4.9 10.6-3.3 2.6-8.1 3.8-14.4 3.8h-24zm10.7-30.7h11c5.8 0 8.7-2.3 8.7-6.8S141 30 135.2 30h-11v13.6zm0 22.4h12.2c3 0 5.2-.6 6.6-1.8 1.4-1.2 2.2-2.9 2.2-5.1 0-2.2-.7-3.9-2.2-5.1-1.4-1.2-3.7-1.8-6.6-1.8h-12.2V66zM205.4 21.5v8.9h-17.7v43.9h-11V30.4H159v-8.9h46.4zM279.4 74.3V21.5h36.1v3.7h-32.1v20.4h25.4v3.8h-25.4v21.3h33.4v3.7h-37.4zM378.1 21.5v52.8h-4V21.5h4zm34.5 24.1v3.8h-36.5v-3.8h36.5zm2.1-24.1v52.8h-4V21.5h4zM268 63l-15.4-15.4L268 32.1zM246.2 61.3c-3.5 3.6-8.3 5.8-13.7 5.8-10.6 0-19.2-8.6-19.2-19.2s8.6-19.2 19.2-19.2c5.2 0 9.9 2.1 13.4 5.5l6.1-6.1c-5-4.9-11.9-8-19.5-8-15.3 0-27.8 12.4-27.8 27.8s12.4 27.8 27.8 27.8c7.7 0 14.7-3.2 19.8-8.3l-6.1-6.1zM361.6 64.3c-4.3 4.3-10.2 7-16.8 7-13 0-23.5-10.5-23.5-23.5s10.5-23.5 23.5-23.5c6.4 0 12.2 2.6 16.5 6.7l2.6-2.6c-4.9-4.8-11.6-7.8-19.1-7.8-15 0-27.2 12.2-27.2 27.2S329.8 75 344.8 75c7.6 0 14.4-3.1 19.4-8.1l-2.6-2.6z"></path>
  <path d="M87.7 96.2H8.5c-4.7 0-8.5-3.8-8.5-8.5V8.5C0 3.8 3.8 0 8.5 0h79.1c4.7 0 8.5 3.8 8.5 8.5v79.1c.1 4.8-3.7 8.6-8.4 8.6z" fill="#f7a63c"></path>
  <path d="M44.3 22v16.7l-8.7 8.7 8.8 8.7v18.1h44.8V22z"></path>
  <path fill="#f6a53c" d="M80 64.1H56.3V32.2h23.2V36h-19v9.7H75v3.8H60.5v10.8H80z"></path>
  <path d="M29.6 47.4l6.1-6.1v-.6c0-5.5-3.7-9-12.1-9H7v32.9h17.6c7.7 0 11.4-3.1 11.4-8.8v-2l-6.4-6.4zM14.8 38H23c3.4 0 4.8 1.6 4.8 3.7 0 1.9-1.4 3.5-4.8 3.5h-8.2V38zm8.8 20.2h-8.9v-7.4h8.9c3.5 0 5.1 1.6 5.1 3.7.1 2.2-1.5 3.7-5.1 3.7z"></path>
</svg>
