<svg width="138" height="26" viewBox="0 0 138 26" fill="none" xmlns="http://www.w3.org/2000/svg">
<path d="M6.69598 12.924C6.69598 14.4814 7.95854 15.744 9.51598 15.744C11.0734 15.744 12.336 14.4814 12.336 12.924C12.336 11.3666 11.0734 10.104 9.51598 10.104C7.95854 10.104 6.69598 11.3666 6.69598 12.924Z" fill="#D82D3E"/>
<path d="M5.71099 19.8499C2.97678 18.3179 1.39731 15.3229 1.67733 12.2012C1.95735 9.07959 4.04464 6.4135 7.00786 5.39256C9.97108 4.37161 13.2576 5.18621 15.401 7.47288L14.413 8.26288C12.2603 6.02961 8.85529 5.5678 6.1855 7.147C3.5157 8.72621 2.28055 11.9327 3.20099 14.8949H4.92599C3.9211 12.4785 4.92862 9.69484 7.24728 8.4814C9.56594 7.26797 12.4274 8.02688 13.84 10.2299L17.395 7.38988C16.5289 6.18158 15.3959 5.18921 14.084 4.48988L14.808 1.78988L13.308 1.38988L12.641 3.86888C12.209 3.72431 11.7672 3.61102 11.319 3.52988L11.987 1.02988L10.487 0.629883L9.74999 3.37388C9.69799 3.37388 9.64999 3.37388 9.59399 3.37388C5.06609 3.379 1.15857 6.55006 0.221477 10.9799C-0.715613 15.4098 1.57304 19.8916 5.71099 21.7299V19.8499Z" fill="#D82D3E"/>
<path d="M13.969 15.4771C13.7742 15.8131 13.5417 16.1258 13.276 16.4091V18.496C13.7328 18.1942 14.1512 17.8379 14.522 17.4351L15.508 18.2241C14.8727 18.9301 14.1169 19.5176 13.276 19.9591V21.8141C15.0047 21.0914 16.4856 19.8812 17.538 18.3311L13.969 15.4771Z" fill="#D82D3E"/>
<path d="M11.751 23.019L11.734 16.563L3.927 16.571C4.32697 17.2081 4.83057 17.7739 5.417 18.245C5.417 18.245 5.958 18.245 5.964 18.245C6.72104 18.3628 7.27924 19.0148 7.279 19.781V23.017C7.279 23.2923 7.16964 23.5563 6.97498 23.751C6.78032 23.9456 6.5163 24.055 6.241 24.055H5.527V25.979H13.277V24.055H12.789C12.2165 24.055 11.7521 23.5915 11.751 23.019Z" fill="#D82D3E"/>
<path d="M31.026 19.6697C33.4542 19.8001 35.6425 18.2133 36.273 15.8647L34.209 15.2487C33.812 16.661 32.4912 17.6112 31.026 17.5387C30.0572 17.5532 29.1264 17.1625 28.4583 16.4609C27.7901 15.7593 27.4453 14.8106 27.507 13.8437C27.4304 12.8742 27.7643 11.9171 28.4273 11.2056C29.0903 10.4941 30.0215 10.0936 30.994 10.1017C32.4482 9.98244 33.7722 10.941 34.113 12.3597L36.193 11.7127C35.5846 9.38179 33.3961 7.81968 30.994 8.00169C29.4433 7.9774 27.95 8.58732 26.8597 9.69023C25.7695 10.7932 25.1768 12.2934 25.219 13.8437C25.163 15.402 25.7562 16.9137 26.857 18.0181C27.9578 19.1225 29.4675 19.7206 31.026 19.6697ZM39.85 19.6697V16.0487C39.85 14.3427 40.756 13.8117 41.8 13.8117C42.0063 13.8114 42.2121 13.8329 42.414 13.8757V11.7187C42.256 11.6995 42.0971 11.6888 41.938 11.6867C41.0363 11.6242 40.1867 12.1141 39.789 12.9257V11.7507H37.808V19.6697H39.85ZM46.733 22.4337L51.626 11.6867H49.378L47.462 16.2017L45.388 11.6867H43.028L46.337 18.4227L44.5 22.4337H46.733ZM54.948 22.4337V18.6337C55.5 19.2884 56.3292 19.6433 57.184 19.5907C59.373 19.5907 60.837 17.8357 60.837 15.4597C60.837 13.1307 59.53 11.3767 57.263 11.3767C56.3273 11.3167 55.4275 11.7463 54.886 12.5117V11.5547H52.854V22.4337H54.948ZM57.007 17.8277C56.4472 17.8325 55.9113 17.6013 55.5307 17.1908C55.1501 16.7803 54.96 16.2285 55.007 15.6707C54.9599 14.9274 55.3297 14.2196 55.9667 13.8337C56.6037 13.4478 57.4023 13.4478 58.0393 13.8337C58.6763 14.2196 59.0461 14.9274 58.999 15.6707C59.0522 16.2284 58.8655 16.7824 58.4855 17.1941C58.1055 17.6058 57.5682 17.8362 57.008 17.8277H57.007ZM65.755 19.6697C66.1708 19.6839 66.5856 19.6201 66.978 19.4817V17.7567C66.7577 17.8006 66.5336 17.8217 66.309 17.8197C65.689 17.8197 65.363 17.5997 65.363 16.9257V13.6937H66.979V11.8427H65.364V9.53669H63.407V10.6197C63.4353 10.955 63.3132 11.2855 63.0736 11.5218C62.8341 11.7581 62.5019 11.8757 62.167 11.8427H61.759V13.6937H63.211V17.2857C63.1764 17.9569 63.4394 18.6092 63.9299 19.0687C64.4204 19.5282 65.0885 19.748 65.756 19.6697H65.755ZM72.045 19.6697C73.1534 19.7003 74.2256 19.2735 75.0097 18.4894C75.7938 17.7053 76.2206 16.6331 76.19 15.5247C76.19 13.2352 74.334 11.3792 72.0445 11.3792C69.755 11.3792 67.899 13.2352 67.899 15.5247C67.8683 16.6333 68.2953 17.7057 69.0796 18.4898C69.8639 19.2739 70.9364 19.7006 72.045 19.6697ZM72.045 17.8277C71.4859 17.8351 70.9496 17.6058 70.5687 17.1965C70.1877 16.7871 69.9975 16.2359 70.045 15.6787C69.9979 14.9354 70.3677 14.2276 71.0047 13.8417C71.6417 13.4558 72.4403 13.4558 73.0773 13.8417C73.7143 14.2276 74.0841 14.9354 74.037 15.6787C74.0872 16.2351 73.899 16.7867 73.5192 17.1965C73.1394 17.6062 72.6036 17.8356 72.045 17.8277ZM83.867 19.6697V8.30869H81.719V19.6697H83.867ZM88.722 19.6697V15.1957C88.679 14.7851 88.8118 14.3754 89.0875 14.0681C89.3632 13.7607 89.7561 13.5844 90.169 13.5827C90.5766 13.5591 90.9733 13.7193 91.2504 14.0192C91.5275 14.3191 91.6557 14.7272 91.6 15.1317V19.6687H93.692V14.7687C93.692 13.0617 92.811 11.6857 90.892 11.6857C89.9939 11.6578 89.1466 12.1016 88.658 12.8557V11.8917H86.631V19.6697H88.722ZM98.407 19.6697C99.1476 19.7552 99.8901 19.5259 100.453 19.0376C101.017 18.5493 101.349 17.8469 101.37 17.1017C101.335 15.8427 100.361 14.8104 99.106 14.7017L98.019 14.4607C97.6 14.3817 97.319 14.1427 97.319 13.7607C97.3454 13.528 97.4631 13.3152 97.6463 13.1693C97.8296 13.0234 98.0633 12.9563 98.296 12.9827C98.931 12.9321 99.4902 13.398 99.555 14.0317L101.276 13.6317C100.93 12.2479 99.6535 11.3023 98.229 11.3754C96.8046 11.4485 95.6311 12.5197 95.429 13.9317C95.4421 15.142 96.3644 16.1484 97.569 16.2667L98.577 16.5047C99.166 16.6317 99.399 16.9177 99.399 17.2667C99.399 17.6797 99.073 18.0447 98.391 18.0447C98.0462 18.0782 97.7025 17.9703 97.4386 17.7459C97.1747 17.5214 97.0132 17.1994 96.991 16.8537L95.223 17.2537C95.4647 18.7826 96.8695 19.8485 98.407 19.6697ZM105.054 19.3627V11.6867H102.905V19.3627H105.054ZM110.654 19.6697C111.518 19.7203 112.343 19.3025 112.814 18.5757C112.815 18.8773 112.841 19.1784 112.892 19.4757H114.88C114.849 19.1587 114.817 18.5877 114.817 18.0647V8.00169H112.767V12.4567C112.278 11.7548 111.44 11.3823 110.591 11.4897C109.552 11.5139 108.568 11.9637 107.87 12.7339C107.171 13.504 106.82 14.527 106.897 15.5637C106.816 16.615 107.174 17.6528 107.886 18.4306C108.598 19.2085 109.6 19.657 110.654 19.6697ZM110.744 17.8277C110.181 17.8394 109.639 17.6091 109.257 17.1952C108.874 16.7813 108.688 16.2234 108.744 15.6627C108.694 15.1064 108.884 14.5553 109.266 14.1478C109.648 13.7403 110.186 13.5151 110.744 13.5287C111.3 13.5109 111.836 13.7331 112.217 14.1384C112.597 14.5438 112.785 15.0932 112.732 15.6467C112.79 16.2073 112.605 16.7659 112.226 17.1823C111.846 17.5987 111.307 17.8335 110.743 17.8277H110.744ZM120.437 19.6697C122.048 19.7567 123.51 18.7343 123.982 17.1917L122.225 16.6677C121.982 17.428 121.248 17.9212 120.452 17.8587C119.424 17.8949 118.554 17.1069 118.489 16.0807H124.06C124.06 16.0487 124.092 15.7317 124.092 15.4297C124.092 12.9207 122.652 11.3797 120.246 11.3797C119.188 11.4027 118.184 11.8528 117.463 12.6275C116.743 13.4023 116.366 14.4358 116.419 15.4927C116.356 16.5907 116.753 17.6653 117.516 18.4581C118.278 19.2508 119.336 19.6899 120.436 19.6697H120.437ZM121.944 14.7567H118.565C118.629 13.8766 119.372 13.2013 120.254 13.2217C120.687 13.1796 121.117 13.3224 121.438 13.6148C121.76 13.9073 121.943 14.322 121.942 14.7567H121.944ZM127.978 19.6697V16.0487C127.978 14.3427 128.884 13.8117 129.928 13.8117C130.134 13.8114 130.34 13.8329 130.542 13.8757V11.7187C130.384 11.6995 130.225 11.6888 130.066 11.6867C129.165 11.625 128.316 12.1148 127.919 12.9257V11.7507H125.938V19.6697H127.978ZM134.642 19.6697C135.382 19.7543 136.124 19.5246 136.687 19.0364C137.249 18.5482 137.581 17.8464 137.602 17.1017C137.567 15.8427 136.593 14.8104 135.338 14.7017L134.252 14.4637C133.833 14.3847 133.552 14.1457 133.552 13.7637C133.578 13.531 133.696 13.3182 133.879 13.1723C134.063 13.0264 134.296 12.9593 134.529 12.9857C135.163 12.9368 135.72 13.4016 135.785 14.0337L137.506 13.6337C137.16 12.2499 135.883 11.3043 134.459 11.3774C133.035 11.4505 131.861 12.5217 131.659 13.9337C131.672 15.144 132.594 16.1504 133.799 16.2687L134.807 16.5067C135.396 16.6337 135.629 16.9197 135.629 17.2687C135.629 17.6817 135.303 18.0467 134.621 18.0467C134.276 18.0802 133.933 17.9723 133.669 17.7479C133.405 17.5234 133.243 17.2014 133.221 16.8557L131.453 17.2557C131.696 18.7851 133.102 19.8503 134.64 19.6697H134.642Z" fill="#17171A"/>
<path d="M104.133 10.4575C104.811 10.4575 105.361 9.90767 105.361 9.22946C105.361 8.55126 104.811 8.00146 104.133 8.00146C103.455 8.00146 102.905 8.55126 102.905 9.22946C102.905 9.90767 103.455 10.4575 104.133 10.4575Z" fill="#D82D3E"/>
</svg>
