<?xml version="1.0" encoding="UTF-8"?>
<svg xmlns="http://www.w3.org/2000/svg" xmlns:xlink="http://www.w3.org/1999/xlink" version="1.1" id="Ebene_1" x="0px" y="0px" viewBox="0 0 212.598 157.988" style="enable-background:new 0 0 212.598 157.988;" xml:space="preserve">
<style type="text/css">
	.st0{fill:#0072BB;}
</style>
<path class="st0" d="M177.165,0v92.693h35.433V0H177.165z M165.941,28.521h-35.433v64.172h35.433V28.521z M119.284,57.26H83.851  v35.433h35.433V57.26z M0,157.383h9.461v-52.761H0V157.383z M48.298,142.546l-22.71-27.402h-7.872v42.239h8.78v-28.463  l23.617,28.463h6.964v-42.239h-8.78V142.546z M83.722,146.028l-12.49-30.884h-9.16l17.562,42.239h8.099l17.637-42.239h-9.235  L83.722,146.028z M119.3,139.594h18.395v-7.949H119.3v-8.327h19.681v-8.175h-28.613v42.239h29.068v-8.175H119.3V139.594z   M165.324,132.327c-6.737-2.498-10.295-3.028-10.295-6.283c0-2.422,2.422-3.861,5.98-3.861c3.784,0,6.055,1.438,7.645,3.936  l6.586-4.542c-2.649-4.164-7.192-7.267-14.307-7.267c-7.948,0-14.609,4.466-14.609,11.884c0,7.04,4.542,9.765,11.051,12.187  c6.208,2.347,10.976,3.255,10.976,7.04c0,1.211-1.135,4.693-7.267,4.693c-4.996,0-8.78-2.498-10.825-5.904l-6.736,4.314  c2.724,5.526,8.704,9.462,17.561,9.462c10.901,0,16.124-5.601,16.124-12.868C177.207,138.232,173.423,135.355,165.324,132.327z   M179.442,123.319h12.112v34.064h8.933v-34.064h12.112v-8.175h-33.156V123.319z"></path>
</svg>
