<?xml version="1.0" encoding="UTF-8"?>
<svg xmlns="http://www.w3.org/2000/svg" xmlns:xlink="http://www.w3.org/1999/xlink" width="112.5pt" height="56.249996pt" viewBox="0 0 112.5 56.249996" version="1.2">
<defs>
<clipPath id="clip1">
  <path d="M 0.492188 3.929688 L 111.511719 3.929688 L 111.511719 51.195312 L 0.492188 51.195312 Z M 0.492188 3.929688 "/>
</clipPath>
</defs>
<g id="surface1">
<g clip-path="url(#clip1)" clip-rule="nonzero">
<path style=" stroke:none;fill-rule:evenodd;fill:rgb(14.118958%,16.079712%,34.509277%);fill-opacity:1;" d="M 0.5625 12.410156 C 0.5625 7.726562 4.433594 3.929688 9.199219 3.929688 L 103.304688 3.929688 C 108.074219 3.929688 111.941406 7.726562 111.941406 12.410156 L 111.941406 42.71875 C 111.941406 47.398438 108.074219 51.195312 103.304688 51.195312 L 9.199219 51.195312 C 4.433594 51.195312 0.5625 47.398438 0.5625 42.71875 C 0.5625 42.71875 0.5625 12.410156 0.5625 12.410156 Z M 0.5625 12.410156 "/>
</g>
<path style=" stroke:none;fill-rule:evenodd;fill:rgb(100%,100%,100%);fill-opacity:1;" d="M 4.105469 12.699219 L 4.105469 42.429688 C 4.105469 45.355469 6.523438 47.730469 9.507812 47.730469 L 58.808594 47.730469 L 58.808594 7.398438 L 9.507812 7.398438 C 6.523438 7.398438 4.105469 9.773438 4.105469 12.699219 Z M 71.546875 27.414062 C 71.546875 29.308594 70.59375 30.609375 69.027344 30.609375 C 67.640625 30.609375 66.484375 29.308594 66.484375 27.574219 C 66.484375 25.792969 67.5 24.472656 69.027344 24.472656 C 70.648438 24.476562 71.546875 25.84375 71.546875 27.414062 Z M 62.328125 38.273438 L 66.484375 38.273438 L 66.484375 31.816406 L 66.527344 31.816406 C 67.316406 33.230469 68.890625 33.753906 70.34375 33.753906 C 73.925781 33.753906 75.84375 30.839844 75.84375 27.324219 C 75.84375 24.449219 74.019531 21.320312 70.691406 21.320312 C 68.800781 21.320312 67.042969 22.074219 66.210938 23.742188 L 66.164062 23.742188 L 66.164062 21.597656 L 62.332031 21.597656 L 62.332031 38.273438 Z M 81.523438 29.71875 C 81.523438 28.578125 82.632812 28.144531 84.042969 28.144531 C 84.667969 28.144531 85.265625 28.191406 85.796875 28.210938 C 85.796875 29.605469 84.800781 31.019531 83.230469 31.019531 C 82.265625 31.023438 81.523438 30.542969 81.523438 29.71875 Z M 89.914062 33.480469 C 89.730469 32.546875 89.683594 31.609375 89.683594 30.675781 L 89.683594 26.25 C 89.683594 22.625 87.027344 21.324219 83.953125 21.324219 C 82.175781 21.324219 80.625 21.578125 79.144531 22.171875 L 79.214844 24.957031 C 80.367188 24.316406 81.710938 24.066406 83.050781 24.066406 C 84.550781 24.066406 85.773438 24.5 85.800781 26.117188 C 85.269531 26.027344 84.527344 25.957031 83.859375 25.957031 C 81.644531 25.957031 77.644531 26.390625 77.644531 30.015625 C 77.644531 32.59375 79.769531 33.753906 82.148438 33.753906 C 83.859375 33.753906 85.015625 33.097656 85.960938 31.609375 L 86.007812 31.609375 C 86.007812 32.226562 86.074219 32.839844 86.101562 33.480469 Z M 91.785156 38.273438 C 92.632812 38.457031 93.5 38.546875 94.375 38.546875 C 98.1875 38.546875 99.085938 35.648438 100.265625 32.664062 L 104.679688 21.601562 L 100.519531 21.601562 L 98.046875 29.359375 L 98.003906 29.359375 L 95.414062 21.601562 L 90.929688 21.601562 L 95.804688 33.757812 C 95.507812 34.808594 94.722656 35.402344 93.703125 35.402344 C 93.125 35.402344 92.617188 35.332031 92.0625 35.152344 Z M 91.785156 38.273438 "/>
<path style=" stroke:none;fill-rule:evenodd;fill:rgb(89.7995%,14.509583%,13.729858%);fill-opacity:1;" d="M 14.265625 27.441406 C 14.265625 25.820312 15.074219 24.476562 16.621094 24.476562 C 18.492188 24.476562 19.277344 25.957031 19.277344 27.28125 C 19.277344 29.105469 18.101562 30.339844 16.621094 30.339844 C 15.375 30.335938 14.265625 29.289062 14.265625 27.441406 Z M 23.300781 21.601562 L 19.535156 21.601562 L 19.535156 23.746094 L 19.488281 23.746094 C 18.609375 22.28125 17.171875 21.324219 15.394531 21.324219 C 11.652344 21.324219 9.964844 23.972656 9.964844 27.507812 C 9.964844 31.019531 12.023438 33.480469 15.324219 33.480469 C 16.988281 33.480469 18.378906 32.84375 19.367188 31.453125 L 19.414062 31.453125 L 19.414062 32.089844 C 19.414062 34.417969 18.121094 35.53125 15.71875 35.53125 C 13.984375 35.53125 12.917969 35.167969 11.648438 34.554688 L 11.441406 37.792969 C 12.410156 38.136719 14.050781 38.546875 16.039062 38.546875 C 20.890625 38.546875 23.292969 36.972656 23.292969 32.089844 L 23.292969 21.601562 Z M 30.332031 16.652344 L 26.171875 16.652344 L 26.171875 19.660156 L 30.332031 19.660156 Z M 26.175781 33.480469 L 30.332031 33.480469 L 30.332031 21.601562 L 26.175781 21.601562 Z M 41.914062 21.460938 C 41.5 21.394531 40.992188 21.324219 40.503906 21.324219 C 38.703125 21.324219 37.660156 22.285156 36.945312 23.792969 L 36.902344 23.792969 L 36.902344 21.601562 L 33.113281 21.601562 L 33.113281 33.484375 L 37.269531 33.484375 L 37.269531 28.46875 C 37.269531 26.140625 38.359375 24.75 40.296875 24.75 C 40.78125 24.75 41.242188 24.75 41.707031 24.882812 Z M 49.078125 30.882812 C 47.15625 30.882812 46.375 29.308594 46.375 27.550781 C 46.375 25.773438 47.160156 24.199219 49.078125 24.199219 C 50.996094 24.199219 51.78125 25.773438 51.78125 27.550781 C 51.78125 29.308594 50.996094 30.882812 49.078125 30.882812 Z M 49.078125 33.753906 C 53.050781 33.753906 56.082031 31.476562 56.082031 27.550781 C 56.082031 23.605469 53.054688 21.320312 49.078125 21.320312 C 45.105469 21.320312 42.078125 23.605469 42.078125 27.550781 C 42.078125 31.476562 45.105469 33.753906 49.078125 33.753906 Z M 49.078125 33.753906 "/>
</g>
</svg>
