<svg xmlns="http://www.w3.org/2000/svg" width="36" height="24" viewBox="0 0 36 24" fill="none">
<path d="M0.216797 4C0.216797 1.79086 2.00766 0 4.2168 0H31.9377C34.1469 0 35.9377 1.79086 35.9377 4V20C35.9377 22.2091 34.1469 24 31.9377 24H4.2168C2.00766 24 0.216797 22.2091 0.216797 20V4Z" fill="#01326F"></path>
<path d="M21.2837 6.07646H14.6914V17.9237H21.2837V6.07646Z" fill="#FF5F00"></path>
<path d="M15.1101 12.0013C15.1089 10.8602 15.3673 9.73376 15.8659 8.70729C16.3644 7.68082 17.09 6.78124 17.9877 6.07668C16.8762 5.2032 15.5415 4.66004 14.1359 4.50927C12.7304 4.35849 11.3108 4.6062 10.0393 5.22407C8.7679 5.84194 7.69595 6.80505 6.946 8.00332C6.19604 9.2016 5.79834 10.5867 5.79834 12.0003C5.79834 13.4139 6.19604 14.799 6.946 15.9973C7.69595 17.1956 8.7679 18.1587 10.0393 18.7765C11.3108 19.3944 12.7304 19.6421 14.1359 19.4913C15.5415 19.3406 16.8762 18.7974 17.9877 17.9239C17.0903 17.2196 16.3649 16.3203 15.8664 15.2943C15.3678 14.2682 15.1092 13.1421 15.1101 12.0013Z" fill="#EB001B"></path>
<path d="M30.1782 12.001C30.1782 13.4148 29.7804 14.7999 29.0303 15.9983C28.2802 17.1966 27.2081 18.1597 25.9365 18.7774C24.665 19.3952 23.2452 19.6428 21.8396 19.4918C20.4339 19.3408 19.0992 18.7974 17.9878 17.9236C18.8848 17.2186 19.61 16.3192 20.1087 15.293C20.6074 14.2669 20.8665 13.1409 20.8665 12C20.8665 10.8591 20.6074 9.73312 20.1087 8.70698C19.61 7.68084 18.8848 6.78135 17.9878 6.07639C19.0992 5.20263 20.4339 4.6592 21.8396 4.50822C23.2452 4.35723 24.665 4.60477 25.9365 5.22256C27.2081 5.84034 28.2802 6.80343 29.0303 8.00175C29.7804 9.20006 30.1782 10.5852 30.1782 11.999V12.001Z" fill="#F79E1B"></path>
</svg>