<svg xmlns="http://www.w3.org/2000/svg" width="37" height="24" viewBox="0 0 37 24" fill="none">
<path d="M0.601074 4C0.601074 1.79086 2.39194 0 4.60107 0H32.322C34.5311 0 36.322 1.79086 36.322 4V20C36.322 22.2091 34.5311 24 32.322 24H4.60107C2.39193 24 0.601074 22.2091 0.601074 20V4Z" fill="#CCECFF"></path>
<path d="M23.6477 8.25259C23.6477 8.33318 23.6477 8.41377 23.5671 8.49436C22.9224 11.7178 20.8271 12.7655 18.0872 12.7655H16.7172C16.3948 12.7655 16.0725 13.0072 16.0725 13.3296L15.3472 17.8424L15.186 19.1318C15.186 19.3736 15.3472 19.5348 15.5084 19.5348H18.0066C18.3289 19.5348 18.5707 19.293 18.5707 19.0513V18.8901L19.0542 15.9889V15.8278C19.1348 15.5054 19.3766 15.3443 19.6183 15.3443H20.0213C22.4389 15.3443 24.2924 14.3772 24.7759 11.5567C25.0176 10.3479 24.8565 9.38081 24.2924 8.73612C24.1312 8.57494 23.8894 8.41377 23.6477 8.25259Z" fill="#2199D6"></path>
<path d="M23.0027 8.01095C22.9222 8.01095 22.8416 7.93036 22.6804 7.93036C22.5998 7.93036 22.4386 7.84977 22.358 7.84977C21.9551 7.76919 21.5522 7.76919 21.1492 7.76919H17.4422C17.3617 7.76919 17.2811 7.76919 17.2005 7.84977C17.0393 7.93036 16.8781 8.09153 16.8781 8.25271L16.0723 13.2491V13.4103C16.1529 13.0879 16.3946 12.8462 16.717 12.8462H18.0869C20.8269 12.8462 22.9222 11.7179 23.5668 8.57506C23.5668 8.49447 23.5669 8.41388 23.6474 8.3333C23.4863 8.25271 23.3251 8.17212 23.1639 8.09154C23.0833 8.01095 23.0027 8.01095 23.0027 8.01095Z" fill="#252C5E"></path>
<path d="M16.8782 8.25271C16.8782 8.09153 17.0394 7.93036 17.2005 7.84977C17.2811 7.84977 17.3617 7.76919 17.4423 7.76919H21.1493C21.5522 7.76919 22.0357 7.76918 22.3581 7.84977C22.4387 7.84977 22.5999 7.84977 22.6805 7.93036C22.761 7.93036 22.8416 8.01095 23.0028 8.01095C23.0834 8.01095 23.0834 8.01095 23.164 8.09153C23.3251 8.17212 23.4863 8.25271 23.6475 8.33329C23.8087 7.12449 23.6475 6.31862 23.0028 5.59333C22.2775 4.78746 20.9881 4.46512 19.3764 4.46512H14.6218C14.2994 4.46512 13.9771 4.70688 13.9771 5.02923L12.043 17.4396C12.043 17.6814 12.2041 17.9231 12.4459 17.9231H15.347L16.0723 13.2491L16.8782 8.25271Z" fill="#263577"></path>
</svg>