<svg xmlns="http://www.w3.org/2000/svg" width="37" height="24" viewBox="0 0 37 24" fill="none">
<path d="M0.754883 4C0.754883 1.79086 2.54574 0 4.75488 0H32.4758C34.685 0 36.4758 1.79086 36.4758 4V20C36.4758 22.2091 34.685 24 32.4758 24H4.75488C2.54574 24 0.754883 22.2091 0.754883 20V4Z" fill="#F884A1"></path>
<path fill-rule="evenodd" clip-rule="evenodd" d="M21.0328 9.87058L21.8908 5.5982C21.994 5.1189 21.7101 4.63591 21.2345 4.4958C20.7036 4.36307 20.169 4.67278 20.0326 5.19632L19.2552 7.85796L18.6423 5.23687C18.5944 4.99354 18.4469 4.776 18.2368 4.6359C18.0266 4.4958 17.7648 4.44787 17.5178 4.49948C17.0311 4.60272 16.714 5.17051 16.8357 5.68668L17.1973 8.65581C16.8832 8.34265 16.5163 8.24618 16.0912 8.49247L16.0359 8.52934C15.6484 8.79319 15.5696 9.33233 15.8185 9.82341C15.6125 9.83501 15.411 9.92094 15.2579 10.0778L15.221 10.1184C14.8634 10.4871 14.9334 11.1102 15.3796 11.5563L15.742 11.9175C15.7827 13.5872 17.1409 14.7566 18.7422 14.7566C18.7612 14.7566 18.7795 14.754 18.7968 14.7491C20.9658 14.7274 21.9199 13.4257 22.0825 11.4752C22.1341 10.8558 22.0198 10.4318 21.7802 10.1774C21.6474 10.0373 21.5073 9.9709 21.4004 9.95615L21.0328 9.87058ZM20.6445 9.78022L21.5 5.51709C21.559 5.23688 21.393 4.96036 21.1276 4.87925C20.8179 4.80182 20.5008 4.98985 20.416 5.30325L19.4242 8.70262C19.3947 8.80954 19.2841 8.86853 19.1772 8.83903C19.0922 8.8156 19.0375 8.74095 19.0334 8.65763L18.2515 5.31799C18.222 5.1742 18.1372 5.04884 18.0155 4.96773C17.8939 4.88661 17.7427 4.8608 17.5989 4.8903C17.3408 4.9456 17.1491 5.29218 17.2265 5.60188L17.2302 5.624L17.6771 9.30808L17.9582 9.72752C18.0809 9.5571 18.2579 9.45091 18.4693 9.4031C18.6462 9.36624 18.8269 9.36992 19.0002 9.39942C19.0434 9.40559 19.0763 9.41435 19.0945 9.4192C19.098 9.42014 19.101 9.42094 19.1034 9.42154L20.6445 9.78022ZM17.7814 10.1802L17.3412 9.52325C17.3264 9.50747 17.3141 9.48926 17.3051 9.46928L17.0977 9.15981C16.8433 8.78743 16.5963 8.65839 16.3013 8.82799L16.2608 8.85748C16.0322 9.01602 16.0027 9.39209 16.2386 9.75341L17.1088 11.0475C17.2636 11.2761 17.5733 11.3351 17.8019 11.1803L17.8462 11.1545C17.9073 11.1145 17.9579 11.0595 17.9943 10.9962C17.7757 10.7725 17.7216 10.4957 17.7814 10.1802ZM18.3967 10.8248C18.3739 10.7902 18.34 10.7624 18.2982 10.747C18.1319 10.587 18.1253 10.3873 18.2038 10.1257C18.2628 9.93403 18.3771 9.83448 18.5578 9.79392C18.6757 9.76811 18.8048 9.7718 18.9301 9.79392C18.9442 9.79674 18.9567 9.79902 18.9673 9.80096C18.9846 9.80411 18.997 9.80639 19.0039 9.80867L21.3267 10.3507L21.3709 10.3654C21.4078 10.3801 21.4483 10.4096 21.4889 10.4502C21.6437 10.6161 21.7322 10.9295 21.688 11.4457C21.5368 13.2523 20.6962 14.3731 18.6979 14.3547C18.6866 14.3547 18.6756 14.3556 18.6649 14.3573C17.4537 14.325 16.4293 13.5342 16.1913 12.3654L16.4893 12.6624C16.847 13.0053 17.4111 12.9979 17.7576 12.644L17.7982 12.6034C18.0732 12.3164 18.1204 11.8936 17.9416 11.5592C17.9681 11.5449 17.994 11.5293 18.0194 11.5121L18.0637 11.4826C18.1639 11.4144 18.2481 11.3264 18.3127 11.2251C18.4473 11.2953 18.6091 11.3568 18.8011 11.4088L19.3578 11.5378C18.9449 11.7701 18.6868 12.2015 18.6573 12.8615C18.6499 12.9721 18.7347 13.0642 18.8453 13.0716C18.9559 13.0753 19.0481 12.9942 19.0555 12.8836C19.085 12.2863 19.3173 11.9655 19.6897 11.8254C19.8887 11.7517 20.1063 11.7369 20.298 11.7554L20.3459 11.7628C20.6003 11.8107 20.6814 11.4309 20.427 11.3719L18.897 11.0291C18.6761 10.9687 18.5129 10.9017 18.3967 10.8248ZM15.5455 10.3581C15.6985 10.1979 15.9476 10.1786 16.1272 10.3034L16.7769 11.2724C16.9552 11.5327 17.2437 11.6707 17.5355 11.6655C17.6946 11.8586 17.6861 12.1443 17.5069 12.3269L17.4701 12.3674C17.2783 12.5628 16.9649 12.5665 16.7695 12.3748L15.6634 11.2798C15.3574 10.9738 15.3169 10.5977 15.5086 10.3986L15.5455 10.3581Z" fill="white"></path>
<path d="M14.0707 18.4988C14.0707 19.1146 13.5914 19.5349 12.9646 19.5349C12.5258 19.5349 12.1498 19.3358 11.9175 19.0187L12.3489 18.5873C12.4779 18.7532 12.6917 18.9339 12.9719 18.9339C13.2337 18.9339 13.4144 18.7791 13.4144 18.5283C13.4144 18.2629 13.2005 18.1965 12.865 18.1007C12.2493 17.92 11.9986 17.5992 11.9986 17.1826C11.9986 16.6591 12.3968 16.2093 13.0236 16.2093C13.4181 16.2093 13.7831 16.3936 13.9453 16.7512L13.4254 17.0794C13.3259 16.9171 13.1895 16.8102 13.0051 16.8102C12.7876 16.8102 12.6512 16.9577 12.6512 17.1457C12.6512 17.3706 12.8503 17.4407 13.1674 17.5329C13.6651 17.6803 14.0707 17.9274 14.0707 18.4988Z" fill="white"></path>
<path fill-rule="evenodd" clip-rule="evenodd" d="M14.2954 18.3587C14.2954 19.0039 14.8337 19.5349 15.4974 19.5349C16.161 19.5349 16.6993 19.0039 16.6993 18.3587C16.6993 17.7135 16.161 17.1826 15.4974 17.1826C14.8337 17.1826 14.2954 17.7135 14.2954 18.3587ZM15.4972 18.9449C15.818 18.9449 16.0724 18.6905 16.0724 18.3587C16.0724 18.0269 15.818 17.7725 15.4972 17.7725C15.1728 17.7725 14.9221 18.0269 14.9221 18.3587C14.9221 18.6942 15.1765 18.9449 15.4972 18.9449Z" fill="white"></path>
<path d="M18.2515 16.2498V16.8398C17.9013 16.825 17.6469 17.002 17.6469 17.3928V17.6324C17.787 17.485 17.9861 17.4112 18.2331 17.4112V18.0085C17.8865 18.0159 17.6469 18.2371 17.6469 18.5468V19.4759H17.0201V17.3559C17.0201 16.7586 17.3961 16.2498 18.1593 16.2498H18.2515Z" fill="white"></path>
<path fill-rule="evenodd" clip-rule="evenodd" d="M19.6194 19.5349C18.9558 19.5349 18.4175 19.0039 18.4175 18.3587C18.4175 17.7135 18.9558 17.1826 19.6194 17.1826C20.2831 17.1826 20.8213 17.7135 20.8213 18.3587C20.8213 19.0039 20.2831 19.5349 19.6194 19.5349ZM20.1945 18.3587C20.1945 18.6905 19.9438 18.9449 19.6193 18.9449C19.2986 18.9449 19.0442 18.6942 19.0442 18.3587C19.0442 18.0269 19.2986 17.7725 19.6193 17.7725C19.9401 17.7725 20.1945 18.0269 20.1945 18.3587Z" fill="white"></path>
<path d="M21.7689 17.4997V17.2453H21.1605V19.4759H21.7873V18.4583C21.7873 18.0896 22.0048 17.8831 22.3809 17.8831V17.2121C22.097 17.201 21.8942 17.2969 21.7689 17.4997Z" fill="white"></path>
<path d="M23.369 17.7909V18.3366C23.369 18.7274 23.6234 18.9007 23.9737 18.8897V19.4796H23.8815C23.1146 19.4796 22.7423 18.9708 22.7423 18.3735V16.53H23.369V16.8803C23.369 17.1826 23.6161 17.4112 23.9553 17.4186V18.0122C23.7046 18.0122 23.5092 17.9384 23.369 17.7909Z" fill="white"></path>
<path d="M24.7222 19.5127C24.9508 19.5127 25.1425 19.3247 25.1425 19.0924C25.1425 18.8638 24.9544 18.6721 24.7222 18.6721C24.4899 18.6721 24.3019 18.8602 24.3019 19.0924C24.3019 19.3247 24.4899 19.5127 24.7222 19.5127Z" fill="white"></path>
</svg>